<svg xmlns="http://www.w3.org/2000/svg" viewBox="0 0 800 520" width="800" height="520">
  <defs>
    <filter id="shadow" x="-2%" y="-2%" width="104%" height="108%">
      <feDropShadow dx="0" dy="2" stdDeviation="4" flood-opacity="0.08"/>
    </filter>
  </defs>

  <!-- Background -->
  <rect x="0" y="0" width="800" height="520" fill="#FAFAFA"/>

  <!-- Title -->
  <text x="400" y="38" text-anchor="middle" font-family="Quicksand, DM Sans, sans-serif" font-size="20" font-weight="700" fill="#2D2D2D">Summary of Key Findings</text>

  <!-- Aim 1 -->
  <rect x="30" y="62" width="740" height="72" rx="12" fill="#FFFFFF" filter="url(#shadow)"/>
  <rect x="30" y="62" width="6" height="72" rx="3" fill="#4CAF50"/>
  <circle cx="72" cy="98" r="18" fill="#E8F5E9"/>
  <text x="72" y="104" text-anchor="middle" font-family="Lato, DM Sans, sans-serif" font-size="18" font-weight="bold" fill="#4CAF50">&#x2191;</text>
  <text x="104" y="88" font-family="Quicksand, DM Sans, sans-serif" font-size="13" font-weight="700" fill="#3D3E7C">Aim 1</text>
  <text x="104" y="108" font-family="Lato, DM Sans, sans-serif" font-size="14" fill="#2D2D2D">Self-compassion increased</text>
  <rect x="570" y="82" width="180" height="28" rx="14" fill="#E8F5E9"/>
  <text x="660" y="101" text-anchor="middle" font-family="Quicksand, DM Sans, sans-serif" font-size="12" font-weight="700" fill="#2E7D32">Maintained at follow-up</text>

  <!-- Aim 2 -->
  <rect x="30" y="150" width="740" height="72" rx="12" fill="#FFFFFF" filter="url(#shadow)"/>
  <rect x="30" y="150" width="6" height="72" rx="3" fill="#4CAF50"/>
  <circle cx="72" cy="186" r="18" fill="#E8F5E9"/>
  <text x="72" y="192" text-anchor="middle" font-family="Lato, DM Sans, sans-serif" font-size="18" font-weight="bold" fill="#4CAF50">&#x2193;</text>
  <text x="104" y="176" font-family="Quicksand, DM Sans, sans-serif" font-size="13" font-weight="700" fill="#3D3E7C">Aim 2</text>
  <text x="104" y="196" font-family="Lato, DM Sans, sans-serif" font-size="14" fill="#2D2D2D">Shame reduced, particularly internal and external shame (EISS)</text>
  <rect x="570" y="170" width="180" height="28" rx="14" fill="#E8F5E9"/>
  <text x="660" y="189" text-anchor="middle" font-family="Quicksand, DM Sans, sans-serif" font-size="12" font-weight="700" fill="#2E7D32">Large effect (d = 0.87)</text>

  <!-- Aim 3 -->
  <rect x="30" y="238" width="740" height="72" rx="12" fill="#FFFFFF" filter="url(#shadow)"/>
  <rect x="30" y="238" width="6" height="72" rx="3" fill="#3D3E7C"/>
  <circle cx="72" cy="274" r="18" fill="#E8E8F5"/>
  <text x="72" y="280" text-anchor="middle" font-family="Lato, DM Sans, sans-serif" font-size="18" font-weight="bold" fill="#3D3E7C">&#x2194;</text>
  <text x="104" y="264" font-family="Quicksand, DM Sans, sans-serif" font-size="13" font-weight="700" fill="#3D3E7C">Aim 3</text>
  <text x="104" y="284" font-family="Lato, DM Sans, sans-serif" font-size="14" fill="#2D2D2D">Self-compassion &#x2194; Shame relationship confirmed</text>
  <rect x="570" y="258" width="180" height="28" rx="14" fill="#E8E8F5"/>
  <text x="660" y="277" text-anchor="middle" font-family="Quicksand, DM Sans, sans-serif" font-size="12" font-weight="700" fill="#3D3E7C">Mechanism supported</text>

  <!-- Aim 4 -->
  <rect x="30" y="326" width="740" height="72" rx="12" fill="#FFFFFF" filter="url(#shadow)"/>
  <rect x="30" y="326" width="6" height="72" rx="3" fill="#FF9800"/>
  <circle cx="72" cy="362" r="18" fill="#FFF3E0"/>
  <text x="72" y="368" text-anchor="middle" font-family="Lato, DM Sans, sans-serif" font-size="18" font-weight="bold" fill="#E65100">&#x25C6;</text>
  <text x="104" y="349" font-family="Quicksand, DM Sans, sans-serif" font-size="13" font-weight="700" fill="#3D3E7C">Aim 4</text>
  <text x="104" y="369" font-family="Lato, DM Sans, sans-serif" font-size="14" fill="#2D2D2D">Cognitive processes improved (self-focused attention, post-event processing)</text>
  <rect x="570" y="346" width="180" height="28" rx="14" fill="#FFF3E0"/>
  <text x="660" y="365" text-anchor="middle" font-family="Quicksand, DM Sans, sans-serif" font-size="12" font-weight="700" fill="#E65100">Self-criticism: mixed</text>

  <!-- Aim 5 -->
  <rect x="30" y="414" width="740" height="72" rx="12" fill="#FFFFFF" filter="url(#shadow)"/>
  <rect x="30" y="414" width="6" height="72" rx="3" fill="#4CAF50"/>
  <circle cx="72" cy="450" r="18" fill="#E8F5E9"/>
  <text x="72" y="456" text-anchor="middle" font-family="Lato, DM Sans, sans-serif" font-size="18" font-weight="bold" fill="#4CAF50">&#x2193;</text>
  <text x="104" y="440" font-family="Quicksand, DM Sans, sans-serif" font-size="13" font-weight="700" fill="#3D3E7C">Aim 5</text>
  <text x="104" y="460" font-family="Lato, DM Sans, sans-serif" font-size="14" fill="#2D2D2D">Social anxiety &amp; behavioral avoidance reduced</text>
  <rect x="570" y="434" width="180" height="28" rx="14" fill="#E8F5E9"/>
  <text x="660" y="453" text-anchor="middle" font-family="Quicksand, DM Sans, sans-serif" font-size="12" font-weight="700" fill="#2E7D32">Reduced at follow-up</text>

</svg>