<svg xmlns="http://www.w3.org/2000/svg" viewBox="0 0 420 572" width="420" height="572">
  <text x="210" y="30" text-anchor="middle" font-family="DM Sans, sans-serif" font-size="16" font-weight="bold" fill="#2D2D2D">Participant Ratings of Intervention Helpfulness</text>
  <g transform="translate(10, 20)">
    <path d="M 200,210 L 200.0,60.0 A 150,150 0 0,1 348.9,192.1 Z" fill="#3D3E7C" stroke="#fff" stroke-width="2"/><path d="M 200,210 L 348.9,192.1 A 150,150 0 1,1 51.1,192.1 Z" fill="#7B7CB8" stroke="#fff" stroke-width="2"/><path d="M 200,210 L 51.1,192.1 A 150,150 0 0,1 163.6,64.5 Z" fill="#B8B9DE" stroke="#fff" stroke-width="2"/><path d="M 200,210 L 163.6,64.5 A 150,150 0 0,1 199.1,60.0 Z" fill="#E8E8F5" stroke="#fff" stroke-width="2"/>
    <text x="259.7" y="142.7" text-anchor="middle" dominant-baseline="central" font-family="DM Sans, sans-serif" font-size="15" font-weight="bold" fill="#FFFFFF">23.1%</text><text x="200.0" y="300.0" text-anchor="middle" dominant-baseline="central" font-family="DM Sans, sans-serif" font-size="15" font-weight="bold" fill="#FFFFFF">53.8%</text><text x="132.5" y="150.5" text-anchor="middle" dominant-baseline="central" font-family="DM Sans, sans-serif" font-size="15" font-weight="bold" fill="#2D2D2D">19.2%</text>
  </g>
  <rect x="40" y="430" width="18" height="18" rx="3" fill="#3D3E7C"/><text x="66" y="444" font-family="DM Sans, sans-serif" font-size="13" fill="#2D2D2D">Extremely helpful (23.1%, n=6)</text><rect x="40" y="458" width="18" height="18" rx="3" fill="#7B7CB8"/><text x="66" y="472" font-family="DM Sans, sans-serif" font-size="13" fill="#2D2D2D">Somewhat helpful (53.8%, n=14)</text><rect x="40" y="486" width="18" height="18" rx="3" fill="#B8B9DE"/><text x="66" y="500" font-family="DM Sans, sans-serif" font-size="13" fill="#2D2D2D">Neutral (19.2%, n=5)</text><rect x="40" y="514" width="18" height="18" rx="3" fill="#E8E8F5"/><text x="66" y="528" font-family="DM Sans, sans-serif" font-size="13" fill="#2D2D2D">Somewhat unhelpful (3.8%, n=1)</text>
  <text x="210" y="552" text-anchor="middle" font-family="DM Sans, sans-serif" font-size="13" fill="#666">M = 3.96, SD = 0.77</text>
</svg>