<svg xmlns="http://www.w3.org/2000/svg" viewBox="0 0 420 572" width="420" height="572">
  <text x="210" y="30" text-anchor="middle" font-family="DM Sans, sans-serif" font-size="16" font-weight="bold" fill="#2D2D2D">Helpfulness of the Written Modality</text>
  <g transform="translate(10, 20)">
    <path d="M 200,210 L 200.0,60.0 A 150,150 0 0,1 344.6,170.0 Z" fill="#3D3E7C" stroke="#fff" stroke-width="2"/><path d="M 200,210 L 344.6,170.0 A 150,150 0 0,1 122.8,338.6 Z" fill="#7B7CB8" stroke="#fff" stroke-width="2"/><path d="M 200,210 L 122.8,338.6 A 150,150 0 0,1 137.0,73.9 Z" fill="#B8B9DE" stroke="#fff" stroke-width="2"/><path d="M 200,210 L 137.0,73.9 A 150,150 0 0,1 200.0,60.0 Z" fill="#E8E8F5" stroke="#fff" stroke-width="2"/>
    <text x="254.5" y="138.4" text-anchor="middle" dominant-baseline="central" font-family="DM Sans, sans-serif" font-size="15" font-weight="bold" fill="#FFFFFF">20.7%</text><text x="254.5" y="281.6" text-anchor="middle" dominant-baseline="central" font-family="DM Sans, sans-serif" font-size="15" font-weight="bold" fill="#FFFFFF">37.9%</text><text x="110.1" y="205.2" text-anchor="middle" dominant-baseline="central" font-family="DM Sans, sans-serif" font-size="15" font-weight="bold" fill="#2D2D2D">34.5%</text><text x="180.6" y="122.1" text-anchor="middle" dominant-baseline="central" font-family="DM Sans, sans-serif" font-size="15" font-weight="bold" fill="#2D2D2D">6.9%</text>
  </g>
  <rect x="40" y="430" width="18" height="18" rx="3" fill="#3D3E7C"/><text x="66" y="444" font-family="DM Sans, sans-serif" font-size="13" fill="#2D2D2D">Extremely helpful (20.7%, n=6)</text><rect x="40" y="458" width="18" height="18" rx="3" fill="#7B7CB8"/><text x="66" y="472" font-family="DM Sans, sans-serif" font-size="13" fill="#2D2D2D">Somewhat helpful (37.9%, n=11)</text><rect x="40" y="486" width="18" height="18" rx="3" fill="#B8B9DE"/><text x="66" y="500" font-family="DM Sans, sans-serif" font-size="13" fill="#2D2D2D">Neutral (34.5%, n=10)</text><rect x="40" y="514" width="18" height="18" rx="3" fill="#E8E8F5"/><text x="66" y="528" font-family="DM Sans, sans-serif" font-size="13" fill="#2D2D2D">Somewhat unhelpful (6.9%, n=2)</text>
  <text x="210" y="552" text-anchor="middle" font-family="DM Sans, sans-serif" font-size="13" fill="#666">M = 3.72, SD = 0.88</text>
</svg>